# xmcd
#
# Track frame offsets:
#	150
#	12378
#	21785
#	28327
#	40016
#	54175
#	63305
#	78623
#	90989
#	101597
#	113655
#	133228
#	146460
#	158320
#
# Disc length: 2247 seconds
#
# Revision: 3
# Processed by: cddbd v1.5.2PL0 Copyright (c) Steve Scherf et al.
# Submitted via: audiograbber 1.83.01
#
DISCID=a708c50e
DTITLE=Various Artist - Mega Country Vol. III CD4
DYEAR=1998
DGENRE=Country
TTITLE0=Lynn Anderson - Stand by your man
TTITLE1=Jim Reeves - I'am getting better
TTITLE2=Don Williams - Lord I hope this day is good
TTITLE3=Billie Jo Spears - Ease she want in me
TTITLE4=Jerry Lee Lewis - Careless hands
TTITLE5=Loretta Lynn - First City
TTITLE6=Kenny Rogers - For the good times
TTITLE7=Jo Anne Houston - Blue, blue Day
TTITLE8=Tom T. Hall - Fox on the Sun
TTITLE9=Billie Jo Spears - You never can tell
TTITLE10=Jerry Lee Lewis - Thirty nine and holding
TTITLE11=Lynn Anderson - Rose Garden
TTITLE12=Anne Murray - The Last thing on my mind
TTITLE13=Jan Howard - I wisch I could fall in love
EXTD=
EXTT0=
EXTT1=
EXTT2=
EXTT3=
EXTT4=
EXTT5=
EXTT6=
EXTT7=
EXTT8=
EXTT9=
EXTT10=
EXTT11=
EXTT12=
EXTT13=
PLAYORDER=
